<svg id="Слой_1" data-name="Слой 1" xmlns="http://www.w3.org/2000/svg" viewBox="0 0 843 700.72"><defs><style>.cls-1{fill:#fff;}.cls-2{fill:none;stroke:#fff;stroke-miterlimit:10;}</style></defs><title>bck-svg-tablet</title><g id="_Группа_" data-name=" Группа "><path class="cls-1" d="M842.5.51V700h-.8c-77.5-25.7-237.5-43.43-422.2-43.43-182.2,0-340.3,17.26-419,42.38V.28H2.6C80.8,25.75,239.7,43.12,423,43.12,605.6,43.12,764,25.87,842.5.51Z" transform="translate(0 0.22)"/><path class="cls-2" d="M842.5.51V700h-.8c-77.5-25.7-237.5-43.43-422.2-43.43-182.2,0-340.3,17.26-419,42.38V.28H2.6C80.8,25.75,239.7,43.12,423,43.12,605.6,43.12,764,25.87,842.5.51Z" transform="translate(0 0.22)"/></g></svg>