<svg id="Слой_1" data-name="Слой 1" xmlns="http://www.w3.org/2000/svg" viewBox="0 0 774.5 700.72"><defs><style>.cls-1{fill:#fff;}.cls-2{fill:none;stroke:#fff;stroke-miterlimit:10;}</style></defs><title>bck-svg-mobile</title><g id="_Группа_" data-name=" Группа "><path class="cls-1" d="M774,.75V700.24h-.73c-71.2-25.7-218.18-43.44-387.86-43.44C218,656.8,72.8,674.07.5,699.18V.52H2.43C74.27,26,220.24,43.37,388.63,43.37,556.37,43.37,701.89,26.11,774,.75Z" transform="translate(0 -0.02)"/><path class="cls-2" d="M774,.75V700.24h-.73c-71.2-25.7-218.18-43.44-387.86-43.44C218,656.8,72.8,674.07.5,699.18V.52H2.43C74.27,26,220.24,43.37,388.63,43.37,556.37,43.37,701.89,26.11,774,.75Z" transform="translate(0 -0.02)"/></g></svg>