<svg id="Слой_1" data-name="Слой 1" xmlns="http://www.w3.org/2000/svg" viewBox="0 0 1917 86.56"><defs><style>.cls-1{fill:#f1f3fc;}.cls-2{fill:none;stroke:#f1f3fc;stroke-miterlimit:10;}</style></defs><title>bottom-svg</title><path class="cls-1" d="M1918,341.86a7.91,7.91,0,0,1-.89,3.56H2.9a7.8,7.8,0,0,1-.9-3.56c0-45.29,428.91-82,958-82S1918,296.57,1918,341.86Z" transform="translate(-1.5 -259.36)"/><path class="cls-2" d="M2.9,345.42a7.8,7.8,0,0,1-.9-3.56c0-45.29,428.91-82,958-82s958,36.71,958,82a7.91,7.91,0,0,1-.89,3.56" transform="translate(-1.5 -259.36)"/><line class="cls-2" x1="1.4" y1="86.06" x2="1915.61" y2="86.06"/></svg>