<svg id="Слой_2" data-name="Слой 2" xmlns="http://www.w3.org/2000/svg" xmlns:xlink="http://www.w3.org/1999/xlink" viewBox="0 0 491.5 485"><defs><style>.cls-1,.cls-2,.cls-3{fill:none;stroke-miterlimit:10;}.cls-1{stroke:#bed3ec;}.cls-2{stroke:#deecfd;}.cls-3{stroke:url(#Безымянный_градиент_60);}.cls-4{fill:#e70067;}.cls-5{fill:#deecfd;}.cls-6{font-size:17.83px;fill:#bed3ec;font-family:MyriadPro-Regular, Myriad Pro;}</style><linearGradient id="Безымянный_градиент_60" x1="178" y1="231.5" x2="320" y2="231.5" gradientUnits="userSpaceOnUse"><stop offset="0" stop-color="#78c955"/><stop offset="0.5" stop-color="#4dbf9e"/></linearGradient></defs><title>heart</title><circle class="cls-1" cx="245" cy="246.5" r="138"/><circle class="cls-2" cx="249" cy="242.5" r="242"/><path class="cls-3" d="M178,238.5h5s2-1,3-19c0,0,1,19,3,19h6s4-3,7,28l5-70,4,51s2-7,5-9H320"/><path class="cls-4" d="M270,224.5l-1-1c-5-3-5,2-5,2,1,4,6,6,6,6s5-2,6-6c0,0,0-5-5-2Z"/><circle class="cls-5" cx="7" cy="227.5" r="7"/><circle class="cls-5" cx="201" cy="6.5" r="5"/><circle class="cls-5" cx="453" cy="112.5" r="5"/><text class="cls-6" transform="translate(208.83 26.54) scale(1.08 1)">68</text><text class="cls-6" transform="translate(14.83 247.54) scale(1.08 1)">55</text><text class="cls-6" transform="translate(423.83 132.54) scale(1.08 1)">75</text></svg>