<svg id="Слой_1" data-name="Слой 1" xmlns="http://www.w3.org/2000/svg" viewBox="0 0 1920.84 1308.98"><defs><style>.cls-1,.cls-2,.cls-3{fill:none;stroke:#84b5db;stroke-miterlimit:10;}.cls-1{opacity:0.32;}.cls-1,.cls-3{isolation:isolate;}.cls-2{opacity:0.32;}.cls-3{opacity:0.56;}</style></defs><title>stripes-svg</title><path class="cls-1" d="M945.9,749.6q5-11.85,10.2-23.4c96.5-208.9,306.6-353.7,550.1-353.7A602.39,602.39,0,0,1,1919.9,537" transform="translate(-0.13 -1.02)"/><path class="cls-2" d="M946,749.3c-3.3,7.9-6.8,15.6-10.3,23.4l-.1.1C828,1008.2,623.9,1190.1,373.8,1268a910.64,910.64,0,0,1-114.3,27.7,922.29,922.29,0,0,1-159.1,13.8c-12,0-23.9-.2-35.8-.7q-32.4-1.2-64.2-4.7" transform="translate(-0.13 -1.02)"/><path class="cls-2" d="M364.7,731.5c-57.4,172.6-167,322.3-310.7,431.2-10.4,7.9-21,15.6-31.8,23-7.2,5-14.5,9.9-21.8,14.6" transform="translate(-0.13 -1.02)"/><path class="cls-1" d="M364.7,731.6h0q3.6-12.3,7.5-24.3v-.1C464,424.9,689,202.6,973,114.2a920.3,920.3,0,0,1,273.8-41.4c244.8,0,467.3,95.6,632,251.4q21.6,20.4,41.8,42.2" transform="translate(-0.13 -1.02)"/><path class="cls-3" d="M1829.8,1.4c8.1,7.1,16.2,14.2,24.1,21.5q34.65,32,66.6,66.6" transform="translate(-0.13 -1.02)"/><path class="cls-1" d="M1.5,680.2c54.2-253,199.5-477.7,405-646.9Q426,17.25,446.1,2" transform="translate(-0.13 -1.02)"/></svg>